<svg xmlns="http://www.w3.org/2000/svg" xmlns:xlink="http://www.w3.org/1999/xlink" width="1280" zoomAndPan="magnify" viewBox="0 0 960 599.999999" height="800" preserveAspectRatio="xMidYMid meet" version="1.0"><defs><filter x="0%" y="0%" width="100%" height="100%" id="c484059fa7"><feColorMatrix values="0 0 0 0 1 0 0 0 0 1 0 0 0 0 1 0 0 0 1 0" color-interpolation-filters="sRGB"/></filter><mask id="e05ed24866"><g filter="url(#c484059fa7)"><rect x="-96" width="1152" fill="#000000" y="-60" height="719.999999" fill-opacity="0.14"/></g></mask><clipPath id="4aa438c21a"><path d="M 415 0 L 480.050781 0 L 480.050781 64 L 415 64 Z M 415 0 " clip-rule="nonzero"/></clipPath><clipPath id="48643d5e49"><path d="M 434 0 L 480.050781 0 L 480.050781 45 L 434 45 Z M 434 0 " clip-rule="nonzero"/></clipPath><clipPath id="b443ec5984"><path d="M 460 0 L 480.050781 0 L 480.050781 19 L 460 19 Z M 460 0 " clip-rule="nonzero"/></clipPath><clipPath id="be029a3370"><path d="M 415 235 L 480.050781 235 L 480.050781 363 L 415 363 Z M 415 235 " clip-rule="nonzero"/></clipPath><clipPath id="302c1374ca"><path d="M 434 254 L 480.050781 254 L 480.050781 345 L 434 345 Z M 434 254 " clip-rule="nonzero"/></clipPath><clipPath id="c46f20cdd6"><path d="M 460 279 L 480.050781 279 L 480.050781 319 L 460 319 Z M 460 279 " clip-rule="nonzero"/></clipPath><clipPath id="24f73cd541"><path d="M 393 0 L 480.050781 0 L 480.050781 86 L 393 86 Z M 393 0 " clip-rule="nonzero"/></clipPath><clipPath id="5c2ae2f0dc"><path d="M 454 123 L 480.050781 123 L 480.050781 175 L 454 175 Z M 454 123 " clip-rule="nonzero"/></clipPath><clipPath id="ad99628023"><path d="M 415 535 L 480.050781 535 L 480.050781 599.25 L 415 599.25 Z M 415 535 " clip-rule="nonzero"/></clipPath><clipPath id="f76f62fd9b"><path d="M 393 513 L 480.050781 513 L 480.050781 599.25 L 393 599.25 Z M 393 513 " clip-rule="nonzero"/></clipPath><clipPath id="ed3c21a0ba"><path d="M 434 553 L 480.050781 553 L 480.050781 599.25 L 434 599.25 Z M 434 553 " clip-rule="nonzero"/></clipPath><clipPath id="8afc7255b7"><path d="M 460 579 L 480.050781 579 L 480.050781 599.25 L 460 599.25 Z M 460 579 " clip-rule="nonzero"/></clipPath><clipPath id="dda2cca7b8"><path d="M 393 213 L 480.050781 213 L 480.050781 385 L 393 385 Z M 393 213 " clip-rule="nonzero"/></clipPath><clipPath id="8071bbfcb8"><path d="M 454 423 L 480.050781 423 L 480.050781 475 L 454 475 Z M 454 423 " clip-rule="nonzero"/></clipPath><clipPath id="e77890c2b4"><path d="M 304 573 L 355 573 L 355 599.25 L 304 599.25 Z M 304 573 " clip-rule="nonzero"/></clipPath><clipPath id="b61392a00b"><path d="M 0 85 L 94 85 L 94 213 L 0 213 Z M 0 85 " clip-rule="nonzero"/></clipPath><clipPath id="cc009b6750"><path d="M 0 104 L 76 104 L 76 195 L 0 195 Z M 0 104 " clip-rule="nonzero"/></clipPath><clipPath id="344c68bdd7"><path d="M 116 535 L 244 535 L 244 599.25 L 116 599.25 Z M 116 535 " clip-rule="nonzero"/></clipPath><clipPath id="97e9576813"><path d="M 94 513 L 266 513 L 266 599.25 L 94 599.25 Z M 94 513 " clip-rule="nonzero"/></clipPath><clipPath id="5d61c0ceff"><path d="M 134 553 L 225 553 L 225 599.25 L 134 599.25 Z M 134 553 " clip-rule="nonzero"/></clipPath><clipPath id="d27431781d"><path d="M 160 579 L 200 579 L 200 599.25 L 160 599.25 Z M 160 579 " clip-rule="nonzero"/></clipPath><clipPath id="95130d6961"><path d="M 0 385 L 94 385 L 94 513 L 0 513 Z M 0 385 " clip-rule="nonzero"/></clipPath><clipPath id="5f88db1ab7"><path d="M 0 403 L 76 403 L 76 495 L 0 495 Z M 0 403 " clip-rule="nonzero"/></clipPath><clipPath id="dedbbfd893"><path d="M 4 573 L 56 573 L 56 599.25 L 4 599.25 Z M 4 573 " clip-rule="nonzero"/></clipPath><clipPath id="90bcddfa59"><path d="M 0 63 L 116 63 L 116 235 L 0 235 Z M 0 63 " clip-rule="nonzero"/></clipPath><clipPath id="65bbc01d79"><path d="M 0 363 L 116 363 L 116 535 L 0 535 Z M 0 363 " clip-rule="nonzero"/></clipPath><clipPath id="7014f525c8"><path d="M 865 85 L 960 85 L 960 213 L 865 213 Z M 865 85 " clip-rule="nonzero"/></clipPath><clipPath id="a50249bef1"><path d="M 883 104 L 960 104 L 960 195 L 883 195 Z M 883 104 " clip-rule="nonzero"/></clipPath><clipPath id="8b00f74e5b"><path d="M 865 385 L 960 385 L 960 513 L 865 513 Z M 865 385 " clip-rule="nonzero"/></clipPath><clipPath id="7f28ca300c"><path d="M 883 403 L 960 403 L 960 495 L 883 495 Z M 883 403 " clip-rule="nonzero"/></clipPath><clipPath id="26c589306b"><path d="M 903 573 L 955 573 L 955 599.25 L 903 599.25 Z M 903 573 " clip-rule="nonzero"/></clipPath><clipPath id="326b03e05f"><path d="M 843 63 L 960 63 L 960 235 L 843 235 Z M 843 63 " clip-rule="nonzero"/></clipPath><clipPath id="cab2d58525"><path d="M 715 535 L 843 535 L 843 599.25 L 715 599.25 Z M 715 535 " clip-rule="nonzero"/></clipPath><clipPath id="e16fcf9907"><path d="M 693 513 L 865 513 L 865 599.25 L 693 599.25 Z M 693 513 " clip-rule="nonzero"/></clipPath><clipPath id="c8e5251601"><path d="M 733 553 L 825 553 L 825 599.25 L 733 599.25 Z M 733 553 " clip-rule="nonzero"/></clipPath><clipPath id="417c598297"><path d="M 759 579 L 799 579 L 799 599.25 L 759 599.25 Z M 759 579 " clip-rule="nonzero"/></clipPath><clipPath id="a4ed9aceb9"><path d="M 843 363 L 960 363 L 960 535 L 843 535 Z M 843 363 " clip-rule="nonzero"/></clipPath><clipPath id="004d797208"><path d="M 603 573 L 655 573 L 655 599.25 L 603 599.25 Z M 603 573 " clip-rule="nonzero"/></clipPath><clipPath id="69bb2186d2"><path d="M 480 535 L 543 535 L 543 599.25 L 480 599.25 Z M 480 535 " clip-rule="nonzero"/></clipPath><clipPath id="9742eee4e6"><path d="M 480 513 L 565 513 L 565 599.25 L 480 599.25 Z M 480 513 " clip-rule="nonzero"/></clipPath><clipPath id="589c27c7b4"><path d="M 480 553 L 525 553 L 525 599.25 L 480 599.25 Z M 480 553 " clip-rule="nonzero"/></clipPath><clipPath id="7bf38724f4"><path d="M 480 579 L 499 579 L 499 599.25 L 480 599.25 Z M 480 579 " clip-rule="nonzero"/></clipPath><clipPath id="8dc263dabf"><rect x="0" width="960" y="0" height="600"/></clipPath></defs><g mask="url(#e05ed24866)"><g transform="matrix(1, 0, 0, 1, 0, -0.000000000000034788)"><g clip-path="url(#8dc263dabf)"><g clip-path="url(#4aa438c21a)"><path fill="#040606" d="M 479.390625 63.121094 C 479.613281 63.121094 479.839844 63.113281 480.0625 63.109375 L 480.0625 61.722656 C 479.839844 61.726562 479.613281 61.734375 479.390625 61.734375 C 445.246094 61.734375 417.445312 34.082031 417.195312 0 L 415.808594 0 C 416.058594 34.847656 444.480469 63.121094 479.390625 63.121094 " fill-opacity="1" fill-rule="nonzero"/></g><g clip-path="url(#48643d5e49)"><path fill="#040606" d="M 479.390625 44.671875 C 479.613281 44.671875 479.839844 44.660156 480.0625 44.65625 L 480.0625 43.265625 C 479.839844 43.273438 479.613281 43.285156 479.390625 43.285156 C 455.417969 43.285156 435.902344 23.910156 435.648438 0 L 434.261719 0 C 434.515625 24.671875 454.65625 44.671875 479.390625 44.671875 " fill-opacity="1" fill-rule="nonzero"/></g><g clip-path="url(#b443ec5984)"><path fill="#040606" d="M 479.390625 18.835938 C 479.613281 18.835938 479.839844 18.828125 480.0625 18.820312 L 480.0625 17.433594 C 479.839844 17.441406 479.613281 17.449219 479.390625 17.449219 C 469.664062 17.449219 461.730469 9.664062 461.484375 0 L 460.097656 0 C 460.34375 10.429688 468.902344 18.835938 479.390625 18.835938 " fill-opacity="1" fill-rule="nonzero"/></g><path fill="#040606" d="M 329.578125 24.78125 C 343.351562 24.78125 354.582031 13.710938 354.859375 0 L 353.472656 0 C 353.195312 12.945312 342.585938 23.394531 329.578125 23.394531 C 316.566406 23.394531 305.957031 12.945312 305.675781 0 L 304.289062 0 C 304.570312 13.710938 315.800781 24.78125 329.578125 24.78125 " fill-opacity="1" fill-rule="nonzero"/><g clip-path="url(#be029a3370)"><path fill="#040606" d="M 415.800781 299.160156 C 415.800781 334.222656 444.328125 362.746094 479.390625 362.746094 C 479.613281 362.746094 479.839844 362.738281 480.0625 362.734375 L 480.0625 361.347656 C 479.839844 361.351562 479.613281 361.359375 479.390625 361.359375 C 445.09375 361.359375 417.1875 333.457031 417.1875 299.160156 C 417.1875 264.863281 445.09375 236.960938 479.390625 236.960938 C 479.613281 236.960938 479.839844 236.96875 480.0625 236.96875 L 480.0625 235.582031 C 479.839844 235.582031 479.613281 235.574219 479.390625 235.574219 C 444.328125 235.574219 415.800781 264.097656 415.800781 299.160156 " fill-opacity="1" fill-rule="nonzero"/></g><g clip-path="url(#302c1374ca)"><path fill="#040606" d="M 434.253906 299.160156 C 434.253906 324.050781 454.5 344.296875 479.390625 344.296875 C 479.613281 344.296875 479.839844 344.285156 480.0625 344.28125 L 480.0625 342.890625 C 479.839844 342.898438 479.613281 342.910156 479.390625 342.910156 C 455.265625 342.910156 435.640625 323.28125 435.640625 299.160156 C 435.640625 275.039062 455.265625 255.414062 479.390625 255.414062 C 479.613281 255.414062 479.839844 255.425781 480.0625 255.429688 L 480.0625 254.042969 C 479.839844 254.039062 479.613281 254.023438 479.390625 254.023438 C 454.5 254.023438 434.253906 274.273438 434.253906 299.160156 " fill-opacity="1" fill-rule="nonzero"/></g><g clip-path="url(#c46f20cdd6)"><path fill="#040606" d="M 460.085938 299.160156 C 460.085938 309.804688 468.742188 318.460938 479.390625 318.460938 C 479.613281 318.460938 479.839844 318.453125 480.0625 318.445312 L 480.0625 317.058594 C 479.839844 317.066406 479.613281 317.074219 479.390625 317.074219 C 469.511719 317.074219 461.472656 309.039062 461.472656 299.160156 C 461.472656 289.285156 469.511719 281.246094 479.390625 281.246094 C 479.613281 281.246094 479.839844 281.257812 480.0625 281.261719 L 480.0625 279.875 C 479.839844 279.867188 479.613281 279.859375 479.390625 279.859375 C 468.742188 279.859375 460.085938 288.515625 460.085938 299.160156 " fill-opacity="1" fill-rule="nonzero"/></g><g clip-path="url(#24f73cd541)"><path fill="#040606" d="M 479.390625 85.070312 C 479.613281 85.070312 479.839844 85.066406 480.0625 85.0625 L 480.0625 83.675781 C 479.839844 83.679688 479.613281 83.683594 479.390625 83.683594 C 433.144531 83.683594 395.496094 46.1875 395.242188 0 L 393.855469 0 C 394.109375 46.953125 432.378906 85.070312 479.390625 85.070312 " fill-opacity="1" fill-rule="nonzero"/></g><g clip-path="url(#5c2ae2f0dc)"><path fill="#040606" d="M 454.089844 149.296875 C 454.089844 163.242188 465.4375 174.59375 479.390625 174.59375 C 479.613281 174.59375 479.839844 174.582031 480.0625 174.574219 L 480.0625 173.1875 C 479.839844 173.195312 479.613281 173.207031 479.390625 173.207031 C 466.203125 173.207031 455.476562 162.480469 455.476562 149.296875 C 455.476562 136.109375 466.203125 125.382812 479.390625 125.382812 C 479.613281 125.382812 479.839844 125.394531 480.0625 125.402344 L 480.0625 124.015625 C 479.839844 124.007812 479.613281 123.996094 479.390625 123.996094 C 465.4375 123.996094 454.089844 135.34375 454.089844 149.296875 " fill-opacity="1" fill-rule="nonzero"/></g><path fill="#040606" d="M 329.578125 212.933594 C 364.636719 212.933594 393.160156 184.410156 393.160156 149.347656 C 393.160156 114.285156 364.636719 85.761719 329.578125 85.761719 C 294.515625 85.761719 265.988281 114.285156 265.988281 149.347656 C 265.988281 184.410156 294.515625 212.933594 329.578125 212.933594 Z M 329.578125 87.148438 C 363.875 87.148438 391.773438 115.050781 391.773438 149.347656 C 391.773438 183.644531 363.875 211.546875 329.578125 211.546875 C 295.28125 211.546875 267.375 183.644531 267.375 149.347656 C 267.375 115.050781 295.28125 87.148438 329.578125 87.148438 " fill-opacity="1" fill-rule="nonzero"/><path fill="#040606" d="M 329.578125 194.484375 C 354.464844 194.484375 374.714844 174.238281 374.714844 149.347656 C 374.714844 124.460938 354.464844 104.210938 329.578125 104.210938 C 304.6875 104.210938 284.441406 124.460938 284.441406 149.347656 C 284.441406 174.238281 304.6875 194.484375 329.578125 194.484375 Z M 329.578125 105.601562 C 353.699219 105.601562 373.324219 125.226562 373.324219 149.347656 C 373.324219 173.46875 353.699219 193.097656 329.578125 193.097656 C 305.453125 193.097656 285.828125 173.46875 285.828125 149.347656 C 285.828125 125.226562 305.453125 105.601562 329.578125 105.601562 " fill-opacity="1" fill-rule="nonzero"/><path fill="#040606" d="M 329.578125 168.648438 C 340.21875 168.648438 348.878906 159.992188 348.878906 149.347656 C 348.878906 138.703125 340.21875 130.046875 329.578125 130.046875 C 318.929688 130.046875 310.273438 138.703125 310.273438 149.347656 C 310.273438 159.992188 318.929688 168.648438 329.578125 168.648438 Z M 329.578125 131.433594 C 339.453125 131.433594 347.488281 139.472656 347.488281 149.347656 C 347.488281 159.226562 339.453125 167.261719 329.578125 167.261719 C 319.699219 167.261719 311.660156 159.226562 311.660156 149.347656 C 311.660156 139.472656 319.699219 131.433594 329.578125 131.433594 " fill-opacity="1" fill-rule="nonzero"/><path fill="#040606" d="M 304.277344 299.109375 C 304.277344 313.054688 315.625 324.40625 329.578125 324.40625 C 343.527344 324.40625 354.871094 313.054688 354.871094 299.109375 C 354.871094 285.15625 343.527344 273.808594 329.578125 273.808594 C 315.625 273.808594 304.277344 285.15625 304.277344 299.109375 Z M 353.484375 299.109375 C 353.484375 312.292969 342.757812 323.019531 329.578125 323.019531 C 316.390625 323.019531 305.664062 312.292969 305.664062 299.109375 C 305.664062 285.921875 316.390625 275.195312 329.578125 275.195312 C 342.757812 275.195312 353.484375 285.921875 353.484375 299.109375 " fill-opacity="1" fill-rule="nonzero"/><g clip-path="url(#ad99628023)"><path fill="#040606" d="M 415.800781 598.785156 C 415.800781 598.941406 415.808594 599.09375 415.808594 599.25 L 417.195312 599.25 C 417.195312 599.09375 417.1875 598.941406 417.1875 598.785156 C 417.1875 564.488281 445.09375 536.585938 479.390625 536.585938 C 479.613281 536.585938 479.839844 536.59375 480.0625 536.59375 L 480.0625 535.207031 C 479.839844 535.207031 479.613281 535.199219 479.390625 535.199219 C 444.328125 535.199219 415.800781 563.722656 415.800781 598.785156 " fill-opacity="1" fill-rule="nonzero"/></g><g clip-path="url(#f76f62fd9b)"><path fill="#040606" d="M 393.851562 598.785156 C 393.851562 598.941406 393.855469 599.09375 393.855469 599.25 L 395.242188 599.25 C 395.242188 599.09375 395.238281 598.941406 395.238281 598.785156 C 395.238281 552.386719 432.988281 514.636719 479.390625 514.636719 C 479.613281 514.636719 479.839844 514.640625 480.0625 514.644531 L 480.0625 513.257812 C 479.839844 513.253906 479.613281 513.25 479.390625 513.25 C 432.222656 513.25 393.851562 551.621094 393.851562 598.785156 " fill-opacity="1" fill-rule="nonzero"/></g><g clip-path="url(#ed3c21a0ba)"><path fill="#040606" d="M 434.253906 598.785156 C 434.253906 598.941406 434.261719 599.09375 434.261719 599.25 L 435.648438 599.25 C 435.648438 599.09375 435.640625 598.941406 435.640625 598.785156 C 435.640625 574.660156 455.265625 555.039062 479.390625 555.039062 C 479.613281 555.039062 479.839844 555.050781 480.0625 555.054688 L 480.0625 553.667969 C 479.839844 553.664062 479.613281 553.648438 479.390625 553.648438 C 454.5 553.648438 434.253906 573.898438 434.253906 598.785156 " fill-opacity="1" fill-rule="nonzero"/></g><g clip-path="url(#8afc7255b7)"><path fill="#040606" d="M 460.085938 598.785156 C 460.085938 598.945312 460.09375 599.09375 460.097656 599.25 L 461.484375 599.25 C 461.480469 599.09375 461.472656 598.945312 461.472656 598.785156 C 461.472656 588.910156 469.511719 580.871094 479.390625 580.871094 C 479.613281 580.871094 479.839844 580.882812 480.0625 580.890625 L 480.0625 579.503906 C 479.839844 579.492188 479.613281 579.484375 479.390625 579.484375 C 468.742188 579.484375 460.085938 588.140625 460.085938 598.785156 " fill-opacity="1" fill-rule="nonzero"/></g><g clip-path="url(#dda2cca7b8)"><path fill="#040606" d="M 393.851562 299.160156 C 393.851562 346.328125 432.222656 384.695312 479.390625 384.695312 C 479.613281 384.695312 479.839844 384.691406 480.0625 384.6875 L 480.0625 383.300781 C 479.839844 383.304688 479.613281 383.308594 479.390625 383.308594 C 432.988281 383.308594 395.238281 345.5625 395.238281 299.160156 C 395.238281 252.761719 432.988281 215.011719 479.390625 215.011719 C 479.613281 215.011719 479.839844 215.015625 480.0625 215.019531 L 480.0625 213.632812 C 479.839844 213.628906 479.613281 213.625 479.390625 213.625 C 432.222656 213.625 393.851562 251.992188 393.851562 299.160156 " fill-opacity="1" fill-rule="nonzero"/></g><g clip-path="url(#8071bbfcb8)"><path fill="#040606" d="M 454.089844 448.921875 C 454.089844 462.867188 465.4375 474.21875 479.390625 474.21875 C 479.613281 474.21875 479.839844 474.207031 480.0625 474.199219 L 480.0625 472.8125 C 479.839844 472.820312 479.613281 472.832031 479.390625 472.832031 C 466.203125 472.832031 455.476562 462.105469 455.476562 448.921875 C 455.476562 435.734375 466.203125 425.007812 479.390625 425.007812 C 479.613281 425.007812 479.839844 425.019531 480.0625 425.027344 L 480.0625 423.640625 C 479.839844 423.632812 479.613281 423.621094 479.390625 423.621094 C 465.4375 423.621094 454.089844 434.96875 454.089844 448.921875 " fill-opacity="1" fill-rule="nonzero"/></g><path fill="#040606" d="M 329.578125 385.386719 C 294.515625 385.386719 265.988281 413.910156 265.988281 448.972656 C 265.988281 484.035156 294.515625 512.558594 329.578125 512.558594 C 364.636719 512.558594 393.160156 484.035156 393.160156 448.972656 C 393.160156 413.910156 364.636719 385.386719 329.578125 385.386719 Z M 329.578125 511.171875 C 295.28125 511.171875 267.375 483.269531 267.375 448.972656 C 267.375 414.675781 295.28125 386.773438 329.578125 386.773438 C 363.875 386.773438 391.773438 414.675781 391.773438 448.972656 C 391.773438 483.269531 363.875 511.171875 329.578125 511.171875 " fill-opacity="1" fill-rule="nonzero"/><path fill="#040606" d="M 329.578125 403.835938 C 304.6875 403.835938 284.441406 424.085938 284.441406 448.972656 C 284.441406 473.863281 304.6875 494.109375 329.578125 494.109375 C 354.464844 494.109375 374.714844 473.863281 374.714844 448.972656 C 374.714844 424.085938 354.464844 403.835938 329.578125 403.835938 Z M 329.578125 492.722656 C 305.453125 492.722656 285.828125 473.09375 285.828125 448.972656 C 285.828125 424.851562 305.453125 405.226562 329.578125 405.226562 C 353.699219 405.226562 373.324219 424.851562 373.324219 448.972656 C 373.324219 473.09375 353.699219 492.722656 329.578125 492.722656 " fill-opacity="1" fill-rule="nonzero"/><path fill="#040606" d="M 329.578125 429.671875 C 318.929688 429.671875 310.273438 438.328125 310.273438 448.972656 C 310.273438 459.617188 318.929688 468.273438 329.578125 468.273438 C 340.21875 468.273438 348.878906 459.617188 348.878906 448.972656 C 348.878906 438.328125 340.21875 429.671875 329.578125 429.671875 Z M 329.578125 466.886719 C 319.699219 466.886719 311.660156 458.851562 311.660156 448.972656 C 311.660156 439.097656 319.699219 431.058594 329.578125 431.058594 C 339.453125 431.058594 347.488281 439.097656 347.488281 448.972656 C 347.488281 458.851562 339.453125 466.886719 329.578125 466.886719 " fill-opacity="1" fill-rule="nonzero"/><g clip-path="url(#e77890c2b4)"><path fill="#040606" d="M 329.578125 573.4375 C 315.625 573.4375 304.277344 584.78125 304.277344 598.734375 C 304.277344 598.90625 304.289062 599.078125 304.289062 599.25 L 305.675781 599.25 C 305.675781 599.078125 305.664062 598.90625 305.664062 598.734375 C 305.664062 585.546875 316.390625 574.824219 329.578125 574.824219 C 342.757812 574.824219 353.484375 585.546875 353.484375 598.734375 C 353.484375 598.90625 353.476562 599.078125 353.472656 599.25 L 354.859375 599.25 C 354.863281 599.078125 354.871094 598.90625 354.871094 598.734375 C 354.871094 584.78125 343.527344 573.4375 329.578125 573.4375 " fill-opacity="1" fill-rule="nonzero"/></g><path fill="#040606" d="M 179.765625 63.121094 C 214.671875 63.121094 243.089844 34.847656 243.34375 0 L 241.957031 0 C 241.703125 34.082031 213.902344 61.734375 179.765625 61.734375 C 145.625 61.734375 117.820312 34.082031 117.570312 0 L 116.183594 0 C 116.433594 34.847656 144.855469 63.121094 179.765625 63.121094 " fill-opacity="1" fill-rule="nonzero"/><path fill="#040606" d="M 179.765625 44.671875 C 204.496094 44.671875 224.636719 24.671875 224.886719 0 L 223.5 0 C 223.246094 23.910156 203.730469 43.285156 179.765625 43.285156 C 155.792969 43.285156 136.277344 23.910156 136.023438 0 L 134.636719 0 C 134.890625 24.671875 155.03125 44.671875 179.765625 44.671875 " fill-opacity="1" fill-rule="nonzero"/><path fill="#040606" d="M 179.765625 18.835938 C 190.25 18.835938 198.804688 10.429688 199.054688 0 L 197.667969 0 C 197.417969 9.664062 189.488281 17.449219 179.765625 17.449219 C 170.039062 17.449219 162.105469 9.664062 161.859375 0 L 160.472656 0 C 160.71875 10.429688 169.277344 18.835938 179.765625 18.835938 " fill-opacity="1" fill-rule="nonzero"/><path fill="#040606" d="M 29.953125 24.78125 C 43.726562 24.78125 54.957031 13.710938 55.234375 0 L 53.847656 0 C 53.570312 12.945312 42.960938 23.394531 29.953125 23.394531 C 16.941406 23.394531 6.332031 12.945312 6.050781 0 L 4.664062 0 C 4.945312 13.710938 16.175781 24.78125 29.953125 24.78125 " fill-opacity="1" fill-rule="nonzero"/><path fill="#040606" d="M 179.765625 235.574219 C 144.703125 235.574219 116.175781 264.097656 116.175781 299.160156 C 116.175781 334.222656 144.703125 362.746094 179.765625 362.746094 C 214.824219 362.746094 243.347656 334.222656 243.347656 299.160156 C 243.347656 264.097656 214.824219 235.574219 179.765625 235.574219 Z M 179.765625 361.359375 C 145.46875 361.359375 117.5625 333.457031 117.5625 299.160156 C 117.5625 264.863281 145.46875 236.960938 179.765625 236.960938 C 214.0625 236.960938 241.960938 264.863281 241.960938 299.160156 C 241.960938 333.457031 214.0625 361.359375 179.765625 361.359375 " fill-opacity="1" fill-rule="nonzero"/><path fill="#040606" d="M 179.765625 254.023438 C 154.875 254.023438 134.628906 274.273438 134.628906 299.160156 C 134.628906 324.050781 154.875 344.296875 179.765625 344.296875 C 204.652344 344.296875 224.902344 324.050781 224.902344 299.160156 C 224.902344 274.273438 204.652344 254.023438 179.765625 254.023438 Z M 179.765625 342.910156 C 155.640625 342.910156 136.015625 323.28125 136.015625 299.160156 C 136.015625 275.039062 155.640625 255.414062 179.765625 255.414062 C 203.886719 255.414062 223.511719 275.039062 223.511719 299.160156 C 223.511719 323.28125 203.886719 342.910156 179.765625 342.910156 " fill-opacity="1" fill-rule="nonzero"/><path fill="#040606" d="M 179.765625 279.859375 C 169.117188 279.859375 160.460938 288.515625 160.460938 299.160156 C 160.460938 309.804688 169.117188 318.460938 179.765625 318.460938 C 190.40625 318.460938 199.066406 309.804688 199.066406 299.160156 C 199.066406 288.515625 190.40625 279.859375 179.765625 279.859375 Z M 179.765625 317.074219 C 169.886719 317.074219 161.847656 309.039062 161.847656 299.160156 C 161.847656 289.285156 169.886719 281.246094 179.765625 281.246094 C 189.640625 281.246094 197.675781 289.285156 197.675781 299.160156 C 197.675781 309.039062 189.640625 317.074219 179.765625 317.074219 " fill-opacity="1" fill-rule="nonzero"/><path fill="#040606" d="M 329.578125 234.882812 C 376.742188 234.882812 415.113281 196.515625 415.113281 149.347656 C 415.113281 102.179688 376.742188 63.8125 329.578125 63.8125 C 282.410156 63.8125 244.039062 102.179688 244.039062 149.347656 C 244.039062 196.515625 282.410156 234.882812 329.578125 234.882812 Z M 329.578125 65.199219 C 375.976562 65.199219 413.726562 102.949219 413.726562 149.347656 C 413.726562 195.75 375.976562 233.496094 329.578125 233.496094 C 283.175781 233.496094 245.425781 195.75 245.425781 149.347656 C 245.425781 102.949219 283.175781 65.199219 329.578125 65.199219 " fill-opacity="1" fill-rule="nonzero"/><path fill="#040606" d="M 179.765625 85.070312 C 226.773438 85.070312 265.042969 46.953125 265.296875 0 L 263.910156 0 C 263.65625 46.1875 226.007812 83.683594 179.765625 83.683594 C 133.519531 83.683594 95.871094 46.1875 95.617188 0 L 94.230469 0 C 94.484375 46.953125 132.753906 85.070312 179.765625 85.070312 " fill-opacity="1" fill-rule="nonzero"/><path fill="#040606" d="M 179.765625 174.59375 C 193.714844 174.59375 205.058594 163.242188 205.058594 149.296875 C 205.058594 135.34375 193.714844 123.996094 179.765625 123.996094 C 165.8125 123.996094 154.464844 135.34375 154.464844 149.296875 C 154.464844 163.242188 165.8125 174.59375 179.765625 174.59375 Z M 179.765625 125.382812 C 192.945312 125.382812 203.671875 136.109375 203.671875 149.296875 C 203.671875 162.480469 192.945312 173.207031 179.765625 173.207031 C 166.578125 173.207031 155.851562 162.480469 155.851562 149.296875 C 155.851562 136.109375 166.578125 125.382812 179.765625 125.382812 " fill-opacity="1" fill-rule="nonzero"/><g clip-path="url(#b61392a00b)"><path fill="#040606" d="M 29.953125 212.933594 C 65.011719 212.933594 93.535156 184.410156 93.535156 149.347656 C 93.535156 114.285156 65.011719 85.761719 29.953125 85.761719 C -5.109375 85.761719 -33.636719 114.285156 -33.636719 149.347656 C -33.636719 184.410156 -5.109375 212.933594 29.953125 212.933594 Z M 29.953125 87.148438 C 64.25 87.148438 92.148438 115.050781 92.148438 149.347656 C 92.148438 183.644531 64.25 211.546875 29.953125 211.546875 C -4.34375 211.546875 -32.25 183.644531 -32.25 149.347656 C -32.25 115.050781 -4.34375 87.148438 29.953125 87.148438 " fill-opacity="1" fill-rule="nonzero"/></g><g clip-path="url(#cc009b6750)"><path fill="#040606" d="M 29.953125 194.484375 C 54.839844 194.484375 75.089844 174.238281 75.089844 149.347656 C 75.089844 124.460938 54.839844 104.210938 29.953125 104.210938 C 5.0625 104.210938 -15.183594 124.460938 -15.183594 149.347656 C -15.183594 174.238281 5.0625 194.484375 29.953125 194.484375 Z M 29.953125 105.601562 C 54.074219 105.601562 73.699219 125.226562 73.699219 149.347656 C 73.699219 173.46875 54.074219 193.097656 29.953125 193.097656 C 5.828125 193.097656 -13.796875 173.46875 -13.796875 149.347656 C -13.796875 125.226562 5.828125 105.601562 29.953125 105.601562 " fill-opacity="1" fill-rule="nonzero"/></g><path fill="#040606" d="M 29.953125 168.648438 C 40.59375 168.648438 49.253906 159.992188 49.253906 149.347656 C 49.253906 138.703125 40.59375 130.046875 29.953125 130.046875 C 19.304688 130.046875 10.648438 138.703125 10.648438 149.347656 C 10.648438 159.992188 19.304688 168.648438 29.953125 168.648438 Z M 29.953125 131.433594 C 39.828125 131.433594 47.863281 139.472656 47.863281 149.347656 C 47.863281 159.226562 39.828125 167.261719 29.953125 167.261719 C 20.074219 167.261719 12.035156 159.226562 12.035156 149.347656 C 12.035156 139.472656 20.074219 131.433594 29.953125 131.433594 " fill-opacity="1" fill-rule="nonzero"/><path fill="#040606" d="M 4.652344 299.109375 C 4.652344 313.054688 16 324.40625 29.953125 324.40625 C 43.902344 324.40625 55.246094 313.054688 55.246094 299.109375 C 55.246094 285.15625 43.902344 273.808594 29.953125 273.808594 C 16 273.808594 4.652344 285.15625 4.652344 299.109375 Z M 53.859375 299.109375 C 53.859375 312.292969 43.132812 323.019531 29.953125 323.019531 C 16.765625 323.019531 6.039062 312.292969 6.039062 299.109375 C 6.039062 285.921875 16.765625 275.195312 29.953125 275.195312 C 43.132812 275.195312 53.859375 285.921875 53.859375 299.109375 " fill-opacity="1" fill-rule="nonzero"/><g clip-path="url(#344c68bdd7)"><path fill="#040606" d="M 179.765625 535.199219 C 144.703125 535.199219 116.175781 563.722656 116.175781 598.785156 C 116.175781 598.941406 116.183594 599.09375 116.183594 599.25 L 117.570312 599.25 C 117.570312 599.09375 117.5625 598.941406 117.5625 598.785156 C 117.5625 564.488281 145.46875 536.585938 179.765625 536.585938 C 214.0625 536.585938 241.960938 564.488281 241.960938 598.785156 C 241.960938 598.941406 241.957031 599.09375 241.957031 599.25 L 243.34375 599.25 C 243.34375 599.09375 243.347656 598.941406 243.347656 598.785156 C 243.347656 563.722656 214.824219 535.199219 179.765625 535.199219 " fill-opacity="1" fill-rule="nonzero"/></g><g clip-path="url(#97e9576813)"><path fill="#040606" d="M 179.765625 513.25 C 132.597656 513.25 94.226562 551.621094 94.226562 598.785156 C 94.226562 598.941406 94.230469 599.09375 94.230469 599.25 L 95.617188 599.25 C 95.617188 599.09375 95.613281 598.941406 95.613281 598.785156 C 95.613281 552.386719 133.363281 514.636719 179.765625 514.636719 C 226.164062 514.636719 263.914062 552.386719 263.914062 598.785156 C 263.914062 598.941406 263.910156 599.09375 263.910156 599.25 L 265.296875 599.25 C 265.296875 599.09375 265.300781 598.941406 265.300781 598.785156 C 265.300781 551.621094 226.929688 513.25 179.765625 513.25 " fill-opacity="1" fill-rule="nonzero"/></g><g clip-path="url(#5d61c0ceff)"><path fill="#040606" d="M 179.765625 553.648438 C 154.875 553.648438 134.628906 573.898438 134.628906 598.785156 C 134.628906 598.941406 134.636719 599.09375 134.636719 599.25 L 136.023438 599.25 C 136.023438 599.09375 136.015625 598.941406 136.015625 598.785156 C 136.015625 574.660156 155.640625 555.039062 179.765625 555.039062 C 203.886719 555.039062 223.511719 574.660156 223.511719 598.785156 C 223.511719 598.941406 223.503906 599.09375 223.5 599.25 L 224.886719 599.25 C 224.890625 599.09375 224.902344 598.941406 224.902344 598.785156 C 224.902344 573.898438 204.652344 553.648438 179.765625 553.648438 " fill-opacity="1" fill-rule="nonzero"/></g><g clip-path="url(#d27431781d)"><path fill="#040606" d="M 179.765625 579.484375 C 169.117188 579.484375 160.460938 588.140625 160.460938 598.785156 C 160.460938 598.945312 160.46875 599.09375 160.472656 599.25 L 161.859375 599.25 C 161.855469 599.09375 161.847656 598.945312 161.847656 598.785156 C 161.847656 588.910156 169.886719 580.871094 179.765625 580.871094 C 189.640625 580.871094 197.675781 588.910156 197.675781 598.785156 C 197.675781 598.945312 197.667969 599.09375 197.667969 599.25 L 199.054688 599.25 C 199.054688 599.09375 199.066406 598.945312 199.066406 598.785156 C 199.066406 588.140625 190.40625 579.484375 179.765625 579.484375 " fill-opacity="1" fill-rule="nonzero"/></g><path fill="#040606" d="M 329.578125 363.4375 C 282.410156 363.4375 244.039062 401.804688 244.039062 448.972656 C 244.039062 496.140625 282.410156 534.507812 329.578125 534.507812 C 376.742188 534.507812 415.113281 496.140625 415.113281 448.972656 C 415.113281 401.804688 376.742188 363.4375 329.578125 363.4375 Z M 329.578125 533.121094 C 283.175781 533.121094 245.425781 495.375 245.425781 448.972656 C 245.425781 402.574219 283.175781 364.824219 329.578125 364.824219 C 375.976562 364.824219 413.726562 402.574219 413.726562 448.972656 C 413.726562 495.375 375.976562 533.121094 329.578125 533.121094 " fill-opacity="1" fill-rule="nonzero"/><path fill="#040606" d="M 179.765625 213.625 C 132.597656 213.625 94.226562 251.992188 94.226562 299.160156 C 94.226562 346.328125 132.597656 384.695312 179.765625 384.695312 C 226.929688 384.695312 265.300781 346.328125 265.300781 299.160156 C 265.300781 251.992188 226.929688 213.625 179.765625 213.625 Z M 179.765625 383.308594 C 133.363281 383.308594 95.613281 345.5625 95.613281 299.160156 C 95.613281 252.761719 133.363281 215.011719 179.765625 215.011719 C 226.164062 215.011719 263.914062 252.761719 263.914062 299.160156 C 263.914062 345.5625 226.164062 383.308594 179.765625 383.308594 " fill-opacity="1" fill-rule="nonzero"/><path fill="#040606" d="M 179.765625 423.621094 C 165.8125 423.621094 154.464844 434.96875 154.464844 448.921875 C 154.464844 462.867188 165.8125 474.21875 179.765625 474.21875 C 193.714844 474.21875 205.058594 462.867188 205.058594 448.921875 C 205.058594 434.96875 193.714844 423.621094 179.765625 423.621094 Z M 179.765625 472.832031 C 166.578125 472.832031 155.851562 462.105469 155.851562 448.921875 C 155.851562 435.734375 166.578125 425.007812 179.765625 425.007812 C 192.945312 425.007812 203.671875 435.734375 203.671875 448.921875 C 203.671875 462.105469 192.945312 472.832031 179.765625 472.832031 " fill-opacity="1" fill-rule="nonzero"/><g clip-path="url(#95130d6961)"><path fill="#040606" d="M 29.953125 385.386719 C -5.109375 385.386719 -33.636719 413.910156 -33.636719 448.972656 C -33.636719 484.035156 -5.109375 512.558594 29.953125 512.558594 C 65.011719 512.558594 93.535156 484.035156 93.535156 448.972656 C 93.535156 413.910156 65.011719 385.386719 29.953125 385.386719 Z M 29.953125 511.171875 C -4.34375 511.171875 -32.25 483.269531 -32.25 448.972656 C -32.25 414.675781 -4.34375 386.773438 29.953125 386.773438 C 64.25 386.773438 92.148438 414.675781 92.148438 448.972656 C 92.148438 483.269531 64.25 511.171875 29.953125 511.171875 " fill-opacity="1" fill-rule="nonzero"/></g><g clip-path="url(#5f88db1ab7)"><path fill="#040606" d="M 29.953125 403.835938 C 5.0625 403.835938 -15.183594 424.085938 -15.183594 448.972656 C -15.183594 473.863281 5.0625 494.109375 29.953125 494.109375 C 54.839844 494.109375 75.089844 473.863281 75.089844 448.972656 C 75.089844 424.085938 54.839844 403.835938 29.953125 403.835938 Z M 29.953125 492.722656 C 5.828125 492.722656 -13.796875 473.09375 -13.796875 448.972656 C -13.796875 424.851562 5.828125 405.226562 29.953125 405.226562 C 54.074219 405.226562 73.699219 424.851562 73.699219 448.972656 C 73.699219 473.09375 54.074219 492.722656 29.953125 492.722656 " fill-opacity="1" fill-rule="nonzero"/></g><path fill="#040606" d="M 29.953125 429.671875 C 19.304688 429.671875 10.648438 438.328125 10.648438 448.972656 C 10.648438 459.617188 19.304688 468.273438 29.953125 468.273438 C 40.59375 468.273438 49.253906 459.617188 49.253906 448.972656 C 49.253906 438.328125 40.59375 429.671875 29.953125 429.671875 Z M 29.953125 466.886719 C 20.074219 466.886719 12.035156 458.851562 12.035156 448.972656 C 12.035156 439.097656 20.074219 431.058594 29.953125 431.058594 C 39.828125 431.058594 47.863281 439.097656 47.863281 448.972656 C 47.863281 458.851562 39.828125 466.886719 29.953125 466.886719 " fill-opacity="1" fill-rule="nonzero"/><g clip-path="url(#dedbbfd893)"><path fill="#040606" d="M 29.953125 573.4375 C 16 573.4375 4.652344 584.78125 4.652344 598.734375 C 4.652344 598.90625 4.664062 599.078125 4.664062 599.25 L 6.050781 599.25 C 6.050781 599.078125 6.039062 598.90625 6.039062 598.734375 C 6.039062 585.546875 16.765625 574.824219 29.953125 574.824219 C 43.132812 574.824219 53.859375 585.546875 53.859375 598.734375 C 53.859375 598.90625 53.851562 599.078125 53.847656 599.25 L 55.234375 599.25 C 55.238281 599.078125 55.246094 598.90625 55.246094 598.734375 C 55.246094 584.78125 43.902344 573.4375 29.953125 573.4375 " fill-opacity="1" fill-rule="nonzero"/></g><g clip-path="url(#90bcddfa59)"><path fill="#040606" d="M 29.953125 234.882812 C 77.117188 234.882812 115.488281 196.515625 115.488281 149.347656 C 115.488281 102.179688 77.117188 63.8125 29.953125 63.8125 C -17.214844 63.8125 -55.585938 102.179688 -55.585938 149.347656 C -55.585938 196.515625 -17.214844 234.882812 29.953125 234.882812 Z M 29.953125 65.199219 C 76.351562 65.199219 114.101562 102.949219 114.101562 149.347656 C 114.101562 195.75 76.351562 233.496094 29.953125 233.496094 C -16.449219 233.496094 -54.199219 195.75 -54.199219 149.347656 C -54.199219 102.949219 -16.449219 65.199219 29.953125 65.199219 " fill-opacity="1" fill-rule="nonzero"/></g><g clip-path="url(#65bbc01d79)"><path fill="#040606" d="M 29.953125 363.4375 C -17.214844 363.4375 -55.585938 401.804688 -55.585938 448.972656 C -55.585938 496.140625 -17.214844 534.507812 29.953125 534.507812 C 77.117188 534.507812 115.488281 496.140625 115.488281 448.972656 C 115.488281 401.804688 77.117188 363.4375 29.953125 363.4375 Z M 29.953125 533.121094 C -16.449219 533.121094 -54.199219 495.375 -54.199219 448.972656 C -54.199219 402.574219 -16.449219 364.824219 29.953125 364.824219 C 76.351562 364.824219 114.101562 402.574219 114.101562 448.972656 C 114.101562 495.375 76.351562 533.121094 29.953125 533.121094 " fill-opacity="1" fill-rule="nonzero"/></g><path fill="#040606" d="M 928.761719 24.78125 C 942.535156 24.78125 953.769531 13.710938 954.046875 0 L 952.660156 0 C 952.382812 12.945312 941.773438 23.394531 928.761719 23.394531 C 915.753906 23.394531 905.144531 12.945312 904.863281 0 L 903.476562 0 C 903.757812 13.710938 914.984375 24.78125 928.761719 24.78125 " fill-opacity="1" fill-rule="nonzero"/><g clip-path="url(#7014f525c8)"><path fill="#040606" d="M 928.761719 212.933594 C 963.824219 212.933594 992.347656 184.410156 992.347656 149.347656 C 992.347656 114.285156 963.824219 85.761719 928.761719 85.761719 C 893.703125 85.761719 865.175781 114.285156 865.175781 149.347656 C 865.175781 184.410156 893.703125 212.933594 928.761719 212.933594 Z M 928.761719 87.148438 C 963.058594 87.148438 990.960938 115.050781 990.960938 149.347656 C 990.960938 183.644531 963.058594 211.546875 928.761719 211.546875 C 894.464844 211.546875 866.5625 183.644531 866.5625 149.347656 C 866.5625 115.050781 894.464844 87.148438 928.761719 87.148438 " fill-opacity="1" fill-rule="nonzero"/></g><g clip-path="url(#a50249bef1)"><path fill="#040606" d="M 928.761719 194.484375 C 953.648438 194.484375 973.898438 174.238281 973.898438 149.347656 C 973.898438 124.460938 953.648438 104.210938 928.761719 104.210938 C 903.875 104.210938 883.625 124.460938 883.625 149.347656 C 883.625 174.238281 903.875 194.484375 928.761719 194.484375 Z M 928.761719 105.601562 C 952.886719 105.601562 972.511719 125.226562 972.511719 149.347656 C 972.511719 173.46875 952.886719 193.097656 928.761719 193.097656 C 904.640625 193.097656 885.011719 173.46875 885.011719 149.347656 C 885.011719 125.226562 904.640625 105.601562 928.761719 105.601562 " fill-opacity="1" fill-rule="nonzero"/></g><path fill="#040606" d="M 928.761719 168.648438 C 939.40625 168.648438 948.0625 159.992188 948.0625 149.347656 C 948.0625 138.703125 939.40625 130.046875 928.761719 130.046875 C 918.117188 130.046875 909.460938 138.703125 909.460938 149.347656 C 909.460938 159.992188 918.117188 168.648438 928.761719 168.648438 Z M 928.761719 131.433594 C 938.640625 131.433594 946.675781 139.472656 946.675781 149.347656 C 946.675781 159.226562 938.640625 167.261719 928.761719 167.261719 C 918.886719 167.261719 910.847656 159.226562 910.847656 149.347656 C 910.847656 139.472656 918.886719 131.433594 928.761719 131.433594 " fill-opacity="1" fill-rule="nonzero"/><path fill="#040606" d="M 903.464844 299.109375 C 903.464844 313.054688 914.8125 324.40625 928.761719 324.40625 C 942.714844 324.40625 954.058594 313.054688 954.058594 299.109375 C 954.058594 285.15625 942.714844 273.808594 928.761719 273.808594 C 914.8125 273.808594 903.464844 285.15625 903.464844 299.109375 Z M 952.671875 299.109375 C 952.671875 312.292969 941.945312 323.019531 928.761719 323.019531 C 915.578125 323.019531 904.851562 312.292969 904.851562 299.109375 C 904.851562 285.921875 915.578125 275.195312 928.761719 275.195312 C 941.945312 275.195312 952.671875 285.921875 952.671875 299.109375 " fill-opacity="1" fill-rule="nonzero"/><g clip-path="url(#8b00f74e5b)"><path fill="#040606" d="M 928.761719 385.386719 C 893.703125 385.386719 865.175781 413.910156 865.175781 448.972656 C 865.175781 484.035156 893.703125 512.558594 928.761719 512.558594 C 963.824219 512.558594 992.347656 484.035156 992.347656 448.972656 C 992.347656 413.910156 963.824219 385.386719 928.761719 385.386719 Z M 928.761719 511.171875 C 894.464844 511.171875 866.5625 483.269531 866.5625 448.972656 C 866.5625 414.675781 894.464844 386.773438 928.761719 386.773438 C 963.058594 386.773438 990.960938 414.675781 990.960938 448.972656 C 990.960938 483.269531 963.058594 511.171875 928.761719 511.171875 " fill-opacity="1" fill-rule="nonzero"/></g><g clip-path="url(#7f28ca300c)"><path fill="#040606" d="M 928.761719 403.835938 C 903.875 403.835938 883.625 424.085938 883.625 448.972656 C 883.625 473.863281 903.875 494.109375 928.761719 494.109375 C 953.648438 494.109375 973.898438 473.863281 973.898438 448.972656 C 973.898438 424.085938 953.648438 403.835938 928.761719 403.835938 Z M 928.761719 492.722656 C 904.640625 492.722656 885.011719 473.09375 885.011719 448.972656 C 885.011719 424.851562 904.640625 405.226562 928.761719 405.226562 C 952.886719 405.226562 972.511719 424.851562 972.511719 448.972656 C 972.511719 473.09375 952.886719 492.722656 928.761719 492.722656 " fill-opacity="1" fill-rule="nonzero"/></g><path fill="#040606" d="M 928.761719 429.671875 C 918.117188 429.671875 909.460938 438.328125 909.460938 448.972656 C 909.460938 459.617188 918.117188 468.273438 928.761719 468.273438 C 939.40625 468.273438 948.0625 459.617188 948.0625 448.972656 C 948.0625 438.328125 939.40625 429.671875 928.761719 429.671875 Z M 928.761719 466.886719 C 918.886719 466.886719 910.847656 458.851562 910.847656 448.972656 C 910.847656 439.097656 918.886719 431.058594 928.761719 431.058594 C 938.640625 431.058594 946.675781 439.097656 946.675781 448.972656 C 946.675781 458.851562 938.640625 466.886719 928.761719 466.886719 " fill-opacity="1" fill-rule="nonzero"/><g clip-path="url(#26c589306b)"><path fill="#040606" d="M 928.761719 573.4375 C 914.8125 573.4375 903.464844 584.78125 903.464844 598.734375 C 903.464844 598.90625 903.472656 599.078125 903.476562 599.25 L 904.863281 599.25 C 904.863281 599.078125 904.851562 598.90625 904.851562 598.734375 C 904.851562 585.546875 915.578125 574.824219 928.761719 574.824219 C 941.945312 574.824219 952.671875 585.546875 952.671875 598.734375 C 952.671875 598.90625 952.664062 599.078125 952.660156 599.25 L 954.046875 599.25 C 954.050781 599.078125 954.058594 598.90625 954.058594 598.734375 C 954.058594 584.78125 942.714844 573.4375 928.761719 573.4375 " fill-opacity="1" fill-rule="nonzero"/></g><path fill="#040606" d="M 778.949219 63.121094 C 813.855469 63.121094 842.277344 34.847656 842.527344 0 L 841.140625 0 C 840.890625 34.082031 813.089844 61.734375 778.949219 61.734375 C 744.8125 61.734375 717.007812 34.082031 716.757812 0 L 715.367188 0 C 715.621094 34.847656 744.042969 63.121094 778.949219 63.121094 " fill-opacity="1" fill-rule="nonzero"/><path fill="#040606" d="M 778.949219 44.671875 C 803.683594 44.671875 823.820312 24.671875 824.074219 0 L 822.6875 0 C 822.433594 23.910156 802.917969 43.285156 778.949219 43.285156 C 754.980469 43.285156 735.464844 23.910156 735.210938 0 L 733.824219 0 C 734.078125 24.671875 754.21875 44.671875 778.949219 44.671875 " fill-opacity="1" fill-rule="nonzero"/><path fill="#040606" d="M 778.949219 18.835938 C 789.4375 18.835938 797.992188 10.429688 798.242188 0 L 796.851562 0 C 796.605469 9.664062 788.675781 17.449219 778.949219 17.449219 C 769.226562 17.449219 761.292969 9.664062 761.046875 0 L 759.660156 0 C 759.90625 10.429688 768.460938 18.835938 778.949219 18.835938 " fill-opacity="1" fill-rule="nonzero"/><path fill="#040606" d="M 629.136719 24.78125 C 642.910156 24.78125 654.144531 13.710938 654.421875 0 L 653.035156 0 C 652.757812 12.945312 642.148438 23.394531 629.136719 23.394531 C 616.128906 23.394531 605.519531 12.945312 605.238281 0 L 603.851562 0 C 604.132812 13.710938 615.359375 24.78125 629.136719 24.78125 " fill-opacity="1" fill-rule="nonzero"/><path fill="#040606" d="M 778.949219 235.574219 C 743.890625 235.574219 715.363281 264.097656 715.363281 299.160156 C 715.363281 334.222656 743.890625 362.746094 778.949219 362.746094 C 814.011719 362.746094 842.535156 334.222656 842.535156 299.160156 C 842.535156 264.097656 814.011719 235.574219 778.949219 235.574219 Z M 778.949219 361.359375 C 744.652344 361.359375 716.75 333.457031 716.75 299.160156 C 716.75 264.863281 744.652344 236.960938 778.949219 236.960938 C 813.246094 236.960938 841.148438 264.863281 841.148438 299.160156 C 841.148438 333.457031 813.246094 361.359375 778.949219 361.359375 " fill-opacity="1" fill-rule="nonzero"/><path fill="#040606" d="M 778.949219 254.023438 C 754.0625 254.023438 733.8125 274.273438 733.8125 299.160156 C 733.8125 324.050781 754.0625 344.296875 778.949219 344.296875 C 803.835938 344.296875 824.085938 324.050781 824.085938 299.160156 C 824.085938 274.273438 803.835938 254.023438 778.949219 254.023438 Z M 778.949219 342.910156 C 754.828125 342.910156 735.199219 323.28125 735.199219 299.160156 C 735.199219 275.039062 754.828125 255.414062 778.949219 255.414062 C 803.074219 255.414062 822.699219 275.039062 822.699219 299.160156 C 822.699219 323.28125 803.074219 342.910156 778.949219 342.910156 " fill-opacity="1" fill-rule="nonzero"/><path fill="#040606" d="M 778.949219 279.859375 C 768.304688 279.859375 759.648438 288.515625 759.648438 299.160156 C 759.648438 309.804688 768.304688 318.460938 778.949219 318.460938 C 789.59375 318.460938 798.25 309.804688 798.25 299.160156 C 798.25 288.515625 789.59375 279.859375 778.949219 279.859375 Z M 778.949219 317.074219 C 769.074219 317.074219 761.035156 309.039062 761.035156 299.160156 C 761.035156 289.285156 769.074219 281.246094 778.949219 281.246094 C 788.828125 281.246094 796.863281 289.285156 796.863281 299.160156 C 796.863281 309.039062 788.828125 317.074219 778.949219 317.074219 " fill-opacity="1" fill-rule="nonzero"/><g clip-path="url(#326b03e05f)"><path fill="#040606" d="M 928.761719 234.882812 C 975.929688 234.882812 1014.300781 196.515625 1014.300781 149.347656 C 1014.300781 102.179688 975.929688 63.8125 928.761719 63.8125 C 881.597656 63.8125 843.226562 102.179688 843.226562 149.347656 C 843.226562 196.515625 881.597656 234.882812 928.761719 234.882812 Z M 928.761719 65.199219 C 975.160156 65.199219 1012.914062 102.949219 1012.914062 149.347656 C 1012.914062 195.75 975.160156 233.496094 928.761719 233.496094 C 882.359375 233.496094 844.613281 195.75 844.613281 149.347656 C 844.613281 102.949219 882.359375 65.199219 928.761719 65.199219 " fill-opacity="1" fill-rule="nonzero"/></g><path fill="#040606" d="M 778.949219 85.070312 C 825.960938 85.070312 864.230469 46.953125 864.484375 0 L 863.09375 0 C 862.84375 46.1875 825.195312 83.683594 778.949219 83.683594 C 732.707031 83.683594 695.058594 46.1875 694.804688 0 L 693.417969 0 C 693.671875 46.953125 731.9375 85.070312 778.949219 85.070312 " fill-opacity="1" fill-rule="nonzero"/><path fill="#040606" d="M 778.949219 174.59375 C 792.902344 174.59375 804.246094 163.242188 804.246094 149.296875 C 804.246094 135.34375 792.902344 123.996094 778.949219 123.996094 C 765 123.996094 753.652344 135.34375 753.652344 149.296875 C 753.652344 163.242188 765 174.59375 778.949219 174.59375 Z M 778.949219 125.382812 C 792.132812 125.382812 802.859375 136.109375 802.859375 149.296875 C 802.859375 162.480469 792.132812 173.207031 778.949219 173.207031 C 765.765625 173.207031 755.039062 162.480469 755.039062 149.296875 C 755.039062 136.109375 765.765625 125.382812 778.949219 125.382812 " fill-opacity="1" fill-rule="nonzero"/><path fill="#040606" d="M 629.136719 212.933594 C 664.199219 212.933594 692.722656 184.410156 692.722656 149.347656 C 692.722656 114.285156 664.199219 85.761719 629.136719 85.761719 C 594.078125 85.761719 565.550781 114.285156 565.550781 149.347656 C 565.550781 184.410156 594.078125 212.933594 629.136719 212.933594 Z M 629.136719 87.148438 C 663.433594 87.148438 691.335938 115.050781 691.335938 149.347656 C 691.335938 183.644531 663.433594 211.546875 629.136719 211.546875 C 594.839844 211.546875 566.9375 183.644531 566.9375 149.347656 C 566.9375 115.050781 594.839844 87.148438 629.136719 87.148438 " fill-opacity="1" fill-rule="nonzero"/><path fill="#040606" d="M 629.136719 194.484375 C 654.023438 194.484375 674.273438 174.238281 674.273438 149.347656 C 674.273438 124.460938 654.023438 104.210938 629.136719 104.210938 C 604.25 104.210938 584 124.460938 584 149.347656 C 584 174.238281 604.25 194.484375 629.136719 194.484375 Z M 629.136719 105.601562 C 653.261719 105.601562 672.886719 125.226562 672.886719 149.347656 C 672.886719 173.46875 653.261719 193.097656 629.136719 193.097656 C 605.015625 193.097656 585.386719 173.46875 585.386719 149.347656 C 585.386719 125.226562 605.015625 105.601562 629.136719 105.601562 " fill-opacity="1" fill-rule="nonzero"/><path fill="#040606" d="M 629.136719 168.648438 C 639.78125 168.648438 648.4375 159.992188 648.4375 149.347656 C 648.4375 138.703125 639.78125 130.046875 629.136719 130.046875 C 618.492188 130.046875 609.835938 138.703125 609.835938 149.347656 C 609.835938 159.992188 618.492188 168.648438 629.136719 168.648438 Z M 629.136719 131.433594 C 639.015625 131.433594 647.050781 139.472656 647.050781 149.347656 C 647.050781 159.226562 639.015625 167.261719 629.136719 167.261719 C 619.261719 167.261719 611.222656 159.226562 611.222656 149.347656 C 611.222656 139.472656 619.261719 131.433594 629.136719 131.433594 " fill-opacity="1" fill-rule="nonzero"/><path fill="#040606" d="M 603.839844 299.109375 C 603.839844 313.054688 615.1875 324.40625 629.136719 324.40625 C 643.089844 324.40625 654.433594 313.054688 654.433594 299.109375 C 654.433594 285.15625 643.089844 273.808594 629.136719 273.808594 C 615.1875 273.808594 603.839844 285.15625 603.839844 299.109375 Z M 653.046875 299.109375 C 653.046875 312.292969 642.320312 323.019531 629.136719 323.019531 C 615.953125 323.019531 605.226562 312.292969 605.226562 299.109375 C 605.226562 285.921875 615.953125 275.195312 629.136719 275.195312 C 642.320312 275.195312 653.046875 285.921875 653.046875 299.109375 " fill-opacity="1" fill-rule="nonzero"/><g clip-path="url(#cab2d58525)"><path fill="#040606" d="M 778.949219 535.199219 C 743.890625 535.199219 715.363281 563.722656 715.363281 598.785156 C 715.363281 598.941406 715.367188 599.09375 715.367188 599.25 L 716.757812 599.25 C 716.757812 599.09375 716.75 598.941406 716.75 598.785156 C 716.75 564.488281 744.652344 536.585938 778.949219 536.585938 C 813.246094 536.585938 841.148438 564.488281 841.148438 598.785156 C 841.148438 598.941406 841.140625 599.09375 841.140625 599.25 L 842.527344 599.25 C 842.527344 599.09375 842.535156 598.941406 842.535156 598.785156 C 842.535156 563.722656 814.011719 535.199219 778.949219 535.199219 " fill-opacity="1" fill-rule="nonzero"/></g><g clip-path="url(#e16fcf9907)"><path fill="#040606" d="M 778.949219 513.25 C 731.785156 513.25 693.414062 551.621094 693.414062 598.785156 C 693.414062 598.941406 693.414062 599.09375 693.417969 599.25 L 694.804688 599.25 C 694.804688 599.09375 694.800781 598.941406 694.800781 598.785156 C 694.800781 552.386719 732.546875 514.636719 778.949219 514.636719 C 825.347656 514.636719 863.101562 552.386719 863.101562 598.785156 C 863.101562 598.941406 863.09375 599.09375 863.09375 599.25 L 864.484375 599.25 C 864.484375 599.09375 864.488281 598.941406 864.488281 598.785156 C 864.488281 551.621094 826.117188 513.25 778.949219 513.25 " fill-opacity="1" fill-rule="nonzero"/></g><g clip-path="url(#c8e5251601)"><path fill="#040606" d="M 778.949219 553.648438 C 754.0625 553.648438 733.8125 573.898438 733.8125 598.785156 C 733.8125 598.941406 733.824219 599.09375 733.824219 599.25 L 735.210938 599.25 C 735.210938 599.09375 735.199219 598.941406 735.199219 598.785156 C 735.199219 574.660156 754.828125 555.039062 778.949219 555.039062 C 803.074219 555.039062 822.699219 574.660156 822.699219 598.785156 C 822.699219 598.941406 822.6875 599.09375 822.6875 599.25 L 824.074219 599.25 C 824.078125 599.09375 824.085938 598.941406 824.085938 598.785156 C 824.085938 573.898438 803.835938 553.648438 778.949219 553.648438 " fill-opacity="1" fill-rule="nonzero"/></g><g clip-path="url(#417c598297)"><path fill="#040606" d="M 778.949219 579.484375 C 768.304688 579.484375 759.648438 588.140625 759.648438 598.785156 C 759.648438 598.945312 759.65625 599.09375 759.660156 599.25 L 761.046875 599.25 C 761.042969 599.09375 761.035156 598.945312 761.035156 598.785156 C 761.035156 588.910156 769.074219 580.871094 778.949219 580.871094 C 788.828125 580.871094 796.863281 588.910156 796.863281 598.785156 C 796.863281 598.945312 796.855469 599.09375 796.851562 599.25 L 798.242188 599.25 C 798.242188 599.09375 798.25 598.945312 798.25 598.785156 C 798.25 588.140625 789.59375 579.484375 778.949219 579.484375 " fill-opacity="1" fill-rule="nonzero"/></g><g clip-path="url(#a4ed9aceb9)"><path fill="#040606" d="M 928.761719 363.4375 C 881.597656 363.4375 843.226562 401.804688 843.226562 448.972656 C 843.226562 496.140625 881.597656 534.507812 928.761719 534.507812 C 975.929688 534.507812 1014.300781 496.140625 1014.300781 448.972656 C 1014.300781 401.804688 975.929688 363.4375 928.761719 363.4375 Z M 928.761719 533.121094 C 882.359375 533.121094 844.613281 495.375 844.613281 448.972656 C 844.613281 402.574219 882.359375 364.824219 928.761719 364.824219 C 975.160156 364.824219 1012.914062 402.574219 1012.914062 448.972656 C 1012.914062 495.375 975.160156 533.121094 928.761719 533.121094 " fill-opacity="1" fill-rule="nonzero"/></g><path fill="#040606" d="M 778.949219 213.625 C 731.785156 213.625 693.414062 251.992188 693.414062 299.160156 C 693.414062 346.328125 731.785156 384.695312 778.949219 384.695312 C 826.117188 384.695312 864.488281 346.328125 864.488281 299.160156 C 864.488281 251.992188 826.117188 213.625 778.949219 213.625 Z M 778.949219 383.308594 C 732.546875 383.308594 694.800781 345.5625 694.800781 299.160156 C 694.800781 252.761719 732.546875 215.011719 778.949219 215.011719 C 825.347656 215.011719 863.101562 252.761719 863.101562 299.160156 C 863.101562 345.5625 825.347656 383.308594 778.949219 383.308594 " fill-opacity="1" fill-rule="nonzero"/><path fill="#040606" d="M 778.949219 423.621094 C 765 423.621094 753.652344 434.96875 753.652344 448.921875 C 753.652344 462.867188 765 474.21875 778.949219 474.21875 C 792.902344 474.21875 804.246094 462.867188 804.246094 448.921875 C 804.246094 434.96875 792.902344 423.621094 778.949219 423.621094 Z M 778.949219 472.832031 C 765.765625 472.832031 755.039062 462.105469 755.039062 448.921875 C 755.039062 435.734375 765.765625 425.007812 778.949219 425.007812 C 792.132812 425.007812 802.859375 435.734375 802.859375 448.921875 C 802.859375 462.105469 792.132812 472.832031 778.949219 472.832031 " fill-opacity="1" fill-rule="nonzero"/><path fill="#040606" d="M 629.136719 385.386719 C 594.078125 385.386719 565.550781 413.910156 565.550781 448.972656 C 565.550781 484.035156 594.078125 512.558594 629.136719 512.558594 C 664.199219 512.558594 692.722656 484.035156 692.722656 448.972656 C 692.722656 413.910156 664.199219 385.386719 629.136719 385.386719 Z M 629.136719 511.171875 C 594.839844 511.171875 566.9375 483.269531 566.9375 448.972656 C 566.9375 414.675781 594.839844 386.773438 629.136719 386.773438 C 663.433594 386.773438 691.335938 414.675781 691.335938 448.972656 C 691.335938 483.269531 663.433594 511.171875 629.136719 511.171875 " fill-opacity="1" fill-rule="nonzero"/><path fill="#040606" d="M 629.136719 403.835938 C 604.25 403.835938 584 424.085938 584 448.972656 C 584 473.863281 604.25 494.109375 629.136719 494.109375 C 654.023438 494.109375 674.273438 473.863281 674.273438 448.972656 C 674.273438 424.085938 654.023438 403.835938 629.136719 403.835938 Z M 629.136719 492.722656 C 605.015625 492.722656 585.386719 473.09375 585.386719 448.972656 C 585.386719 424.851562 605.015625 405.226562 629.136719 405.226562 C 653.261719 405.226562 672.886719 424.851562 672.886719 448.972656 C 672.886719 473.09375 653.261719 492.722656 629.136719 492.722656 " fill-opacity="1" fill-rule="nonzero"/><path fill="#040606" d="M 629.136719 429.671875 C 618.492188 429.671875 609.835938 438.328125 609.835938 448.972656 C 609.835938 459.617188 618.492188 468.273438 629.136719 468.273438 C 639.78125 468.273438 648.4375 459.617188 648.4375 448.972656 C 648.4375 438.328125 639.78125 429.671875 629.136719 429.671875 Z M 629.136719 466.886719 C 619.261719 466.886719 611.222656 458.851562 611.222656 448.972656 C 611.222656 439.097656 619.261719 431.058594 629.136719 431.058594 C 639.015625 431.058594 647.050781 439.097656 647.050781 448.972656 C 647.050781 458.851562 639.015625 466.886719 629.136719 466.886719 " fill-opacity="1" fill-rule="nonzero"/><g clip-path="url(#004d797208)"><path fill="#040606" d="M 629.136719 573.4375 C 615.1875 573.4375 603.839844 584.78125 603.839844 598.734375 C 603.839844 598.90625 603.847656 599.078125 603.851562 599.25 L 605.238281 599.25 C 605.238281 599.078125 605.226562 598.90625 605.226562 598.734375 C 605.226562 585.546875 615.953125 574.824219 629.136719 574.824219 C 642.320312 574.824219 653.046875 585.546875 653.046875 598.734375 C 653.046875 598.90625 653.039062 599.078125 653.035156 599.25 L 654.421875 599.25 C 654.425781 599.078125 654.433594 598.90625 654.433594 598.734375 C 654.433594 584.78125 643.089844 573.4375 629.136719 573.4375 " fill-opacity="1" fill-rule="nonzero"/></g><path fill="#040606" d="M 542.902344 0 L 541.515625 0 C 541.269531 33.859375 513.832031 61.363281 480 61.722656 L 480 63.109375 C 514.59375 62.75 542.65625 34.625 542.902344 0 " fill-opacity="1" fill-rule="nonzero"/><path fill="#040606" d="M 524.449219 0 L 523.0625 0 C 522.8125 23.683594 503.65625 42.902344 480 43.265625 L 480 44.65625 C 504.421875 44.292969 524.199219 24.449219 524.449219 0 " fill-opacity="1" fill-rule="nonzero"/><path fill="#040606" d="M 498.617188 0 L 497.226562 0 C 496.984375 9.4375 489.410156 17.085938 480 17.433594 L 480 18.820312 C 490.175781 18.46875 498.371094 10.207031 498.617188 0 " fill-opacity="1" fill-rule="nonzero"/><path fill="#040606" d="M 542.910156 299.160156 C 542.910156 264.324219 514.753906 235.945312 480 235.582031 L 480 236.96875 C 513.984375 237.332031 541.523438 265.089844 541.523438 299.160156 C 541.523438 333.230469 513.984375 360.988281 480 361.347656 L 480 362.734375 C 514.753906 362.375 542.910156 333.996094 542.910156 299.160156 " fill-opacity="1" fill-rule="nonzero"/><path fill="#040606" d="M 524.460938 299.160156 C 524.460938 274.5 504.574219 254.40625 480 254.042969 L 480 255.429688 C 503.8125 255.792969 523.070312 275.265625 523.070312 299.160156 C 523.070312 323.058594 503.8125 342.527344 480 342.890625 L 480 344.28125 C 504.574219 343.917969 524.460938 323.824219 524.460938 299.160156 " fill-opacity="1" fill-rule="nonzero"/><path fill="#040606" d="M 498.625 299.160156 C 498.625 288.746094 490.332031 280.230469 480 279.875 L 480 281.261719 C 489.566406 281.617188 497.238281 289.507812 497.238281 299.160156 C 497.238281 308.8125 489.566406 316.703125 480 317.058594 L 480 318.445312 C 490.332031 318.089844 498.625 309.578125 498.625 299.160156 " fill-opacity="1" fill-rule="nonzero"/><path fill="#040606" d="M 629.136719 234.882812 C 676.304688 234.882812 714.675781 196.515625 714.675781 149.347656 C 714.675781 102.179688 676.304688 63.8125 629.136719 63.8125 C 581.972656 63.8125 543.601562 102.179688 543.601562 149.347656 C 543.601562 196.515625 581.972656 234.882812 629.136719 234.882812 Z M 629.136719 65.199219 C 675.535156 65.199219 713.289062 102.949219 713.289062 149.347656 C 713.289062 195.75 675.535156 233.496094 629.136719 233.496094 C 582.734375 233.496094 544.988281 195.75 544.988281 149.347656 C 544.988281 102.949219 582.734375 65.199219 629.136719 65.199219 " fill-opacity="1" fill-rule="nonzero"/><path fill="#040606" d="M 564.859375 0 L 563.46875 0 C 563.21875 45.964844 525.9375 83.3125 480 83.675781 L 480 85.0625 C 526.699219 84.699219 564.605469 46.726562 564.859375 0 " fill-opacity="1" fill-rule="nonzero"/><path fill="#040606" d="M 504.621094 149.296875 C 504.621094 135.574219 493.636719 124.371094 480 124.015625 L 480 125.402344 C 492.871094 125.757812 503.234375 136.335938 503.234375 149.296875 C 503.234375 162.253906 492.871094 172.832031 480 173.1875 L 480 174.574219 C 493.636719 174.214844 504.621094 163.015625 504.621094 149.296875 " fill-opacity="1" fill-rule="nonzero"/><g clip-path="url(#69bb2186d2)"><path fill="#040606" d="M 480 535.207031 L 480 536.59375 C 513.984375 536.960938 541.523438 564.714844 541.523438 598.785156 C 541.523438 598.941406 541.519531 599.09375 541.515625 599.25 L 542.902344 599.25 C 542.90625 599.09375 542.910156 598.941406 542.910156 598.785156 C 542.910156 563.949219 514.753906 535.574219 480 535.207031 " fill-opacity="1" fill-rule="nonzero"/></g><g clip-path="url(#9742eee4e6)"><path fill="#040606" d="M 480 513.257812 L 480 514.644531 C 526.089844 515.007812 563.476562 552.609375 563.476562 598.785156 C 563.476562 598.941406 563.46875 599.09375 563.46875 599.25 L 564.859375 599.25 C 564.859375 599.09375 564.863281 598.941406 564.863281 598.785156 C 564.863281 551.84375 526.855469 513.621094 480 513.257812 " fill-opacity="1" fill-rule="nonzero"/></g><g clip-path="url(#589c27c7b4)"><path fill="#040606" d="M 480 553.667969 L 480 555.054688 C 503.8125 555.417969 523.070312 574.890625 523.070312 598.785156 C 523.070312 598.941406 523.0625 599.09375 523.0625 599.25 L 524.449219 599.25 C 524.453125 599.09375 524.460938 598.941406 524.460938 598.785156 C 524.460938 574.125 504.574219 554.03125 480 553.667969 " fill-opacity="1" fill-rule="nonzero"/></g><g clip-path="url(#7bf38724f4)"><path fill="#040606" d="M 480 579.503906 L 480 580.890625 C 489.566406 581.242188 497.238281 589.132812 497.238281 598.785156 C 497.238281 598.945312 497.230469 599.09375 497.226562 599.25 L 498.617188 599.25 C 498.617188 599.09375 498.625 598.945312 498.625 598.785156 C 498.625 588.371094 490.332031 579.855469 480 579.503906 " fill-opacity="1" fill-rule="nonzero"/></g><path fill="#040606" d="M 629.136719 363.4375 C 581.972656 363.4375 543.601562 401.804688 543.601562 448.972656 C 543.601562 496.140625 581.972656 534.507812 629.136719 534.507812 C 676.304688 534.507812 714.675781 496.140625 714.675781 448.972656 C 714.675781 401.804688 676.304688 363.4375 629.136719 363.4375 Z M 629.136719 533.121094 C 582.734375 533.121094 544.988281 495.375 544.988281 448.972656 C 544.988281 402.574219 582.734375 364.824219 629.136719 364.824219 C 675.535156 364.824219 713.289062 402.574219 713.289062 448.972656 C 713.289062 495.375 675.535156 533.121094 629.136719 533.121094 " fill-opacity="1" fill-rule="nonzero"/><path fill="#040606" d="M 564.863281 299.160156 C 564.863281 252.21875 526.855469 213.996094 480 213.632812 L 480 215.019531 C 526.089844 215.382812 563.476562 252.984375 563.476562 299.160156 C 563.476562 345.335938 526.089844 382.9375 480 383.300781 L 480 384.6875 C 526.855469 384.324219 564.863281 346.101562 564.863281 299.160156 " fill-opacity="1" fill-rule="nonzero"/><path fill="#040606" d="M 504.621094 448.921875 C 504.621094 435.199219 493.636719 423.996094 480 423.640625 L 480 425.027344 C 492.871094 425.382812 503.234375 435.960938 503.234375 448.921875 C 503.234375 461.878906 492.871094 472.457031 480 472.8125 L 480 474.199219 C 493.636719 473.839844 504.621094 462.640625 504.621094 448.921875 " fill-opacity="1" fill-rule="nonzero"/></g></g></g></svg>